<?xml version="1.0" encoding="UTF-8"?>
<svg version="1.1" xmlns="http://www.w3.org/2000/svg" width="512" height="512">
<path d="M0 0 C168.96 0 337.92 0 512 0 C512 168.96 512 337.92 512 512 C343.04 512 174.08 512 0 512 C0 343.04 0 174.08 0 0 Z " fill="#502AD3" transform="translate(0,0)"/>
<path d="M0 0 C2.109375 0.234375 2.109375 0.234375 4 1 C8.03985369 9.07970739 4.4761309 22.82289226 3.31201172 31.57861328 C2.98700411 34.10085545 2.69551805 36.62532212 2.41015625 39.15234375 C-4.87426823 102.53745865 -4.87426823 102.53745865 -17.12475586 126.47241211 C-18.16170344 129.46697788 -18.01685664 131.02203994 -17 134 C-16.2575 134.556875 -15.515 135.11375 -14.75 135.6875 C-10.06901771 139.62378056 -7.05648299 145.95332075 -6 152 C-5.94783991 154.2081104 -5.90810353 156.41652171 -5.875 158.625 C-5.11420079 176.10051627 0.90236856 193.63030909 9 209 C9.61604876 210.27215228 10.22656019 211.54699821 10.83203125 212.82421875 C16.34769996 224.36408293 22.96707298 235.19636883 29.89453125 245.9375 C36.74219092 256.7550687 39.81591345 267.53455116 37.375 280.2578125 C35.45013025 287.52763308 32.39194572 292.89949645 27.70703125 298.7578125 C25.82926513 300.97377514 25.82926513 300.97377514 25 304 C25.33 304.99 25.66 305.98 26 307 C26.64179564 314.69102643 26.85572119 321.67102594 22 328 C16.81032458 333.18967542 11.43294713 336.09888834 4.0625 336.4375 C-2.56661165 336.21585797 -6.99209489 333.78965456 -11.875 329.4375 C-14 327 -14 327 -16 324 C-18.7490591 323.74679719 -21.25701255 323.67446162 -24 323.75 C-24.71800781 323.75515625 -25.43601562 323.7603125 -26.17578125 323.765625 C-30.02214109 323.8202802 -33.79561917 324.06438081 -37.6171875 324.5 C-44.43863372 325.22400529 -51.27126602 325.24300839 -58.125 325.25 C-59.15480484 325.25151062 -59.15480484 325.25151062 -60.20541382 325.25305176 C-75.46709214 325.23791407 -93.49920618 324.91451096 -105.34375 313.82421875 C-113.57670223 304.75632089 -119.10642834 294.55903572 -119.1875 282.1875 C-119.20167969 281.21167969 -119.21585938 280.23585938 -119.23046875 279.23046875 C-118.65558894 271.17240766 -115.56457111 264.03560525 -112.5625 256.625 C-104.2253876 236.0066274 -102.41664015 218.08142132 -105.5 196.0625 C-106.59999821 188.16060206 -107.30115983 180.42026795 -107.3125 172.4375 C-107.32023437 171.16241577 -107.32023437 171.16241577 -107.328125 169.86157227 C-107.28471495 166.00699215 -106.98999673 162.96507883 -105.91796875 159.22265625 C-104.91740743 155.71004736 -104.62737698 154.35821127 -106 151 C-107.94415592 148.46485167 -110.13696847 146.21326595 -112.375 143.9375 C-113.65796017 142.59804701 -114.94050748 141.25819845 -116.22265625 139.91796875 C-116.86219238 139.25587402 -117.50172852 138.5937793 -118.16064453 137.91162109 C-129.50839873 126.11802999 -139.69165228 114.15496278 -148 100 C-148.58523437 99.05640625 -149.17046875 98.1128125 -149.7734375 97.140625 C-164.24178444 73.44134178 -164.24178444 73.44134178 -164.0625 61.25 C-164.05347656 60.45078125 -164.04445312 59.6515625 -164.03515625 58.828125 C-164.02355469 58.22484375 -164.01195312 57.6215625 -164 57 C-158.34914332 55.29860493 -155.32167672 57.44040279 -150.33105469 60.08837891 C-144.59774219 63.37860442 -139.09557116 66.98431296 -133.625 70.6875 C-133.03427704 71.08462189 -132.44355408 71.48174377 -131.83493042 71.89089966 C-118.31186719 80.98785915 -105.77670093 90.72418744 -94 102 C-93.49194824 102.48082031 -92.98389648 102.96164063 -92.46044922 103.45703125 C-85.11262093 110.43873459 -78.82976359 117.69700338 -73 126 C-71.41642541 125.68872484 -69.83315007 125.37592711 -68.25 125.0625 C-67.36828125 124.88847656 -66.4865625 124.71445313 -65.578125 124.53515625 C-63.10686924 124.06504684 -63.10686924 124.06504684 -61.171875 123.43359375 C-57.77956195 122.7563514 -54.45463528 122.94242275 -51 123 C-51.01047363 122.0527002 -51.02094727 121.10540039 -51.03173828 120.12939453 C-51.06609637 116.56963603 -51.09103202 113.01005719 -51.10986328 109.45019531 C-51.11983806 107.91794022 -51.13342276 106.38570375 -51.15087891 104.85351562 C-51.29716884 91.67021112 -50.14141242 81.31999301 -44.25 69.375 C-43.77119385 68.39007568 -43.2923877 67.40515137 -42.79907227 66.39038086 C-37.12141911 54.92179336 -30.63610663 43.93402102 -24 33 C-23.5157959 32.19852539 -23.0315918 31.39705078 -22.53271484 30.57128906 C-7.93268196 6.49037615 -7.93268196 6.49037615 0 0 Z " fill="#000000" transform="translate(319,88)"/>
<path d="M0 0 C0.33 0 0.66 0 1 0 C1.14695313 0.60585938 1.29390625 1.21171875 1.4453125 1.8359375 C4.3531171 12.69842593 10.24214059 23.71083737 20.0625 29.75 C29.6734297 34.69369311 41.43313295 36.1227606 52.11328125 36.1328125 C53.09496529 36.13424759 53.09496529 36.13424759 54.09648132 36.13571167 C55.47211809 36.13638746 56.84775816 36.13457544 58.22338867 36.13037109 C60.29678758 36.1250404 62.36996731 36.13032319 64.44335938 36.13671875 C70.92896594 36.13997672 77.32096784 35.9937397 83.76733398 35.24902344 C87.46724669 34.83634865 91.15503499 34.6605718 94.875 34.5625 C95.6071875 34.51673828 96.339375 34.47097656 97.09375 34.42382812 C99.2421875 34.37890625 99.2421875 34.37890625 103 35 C105.3203125 37.83984375 105.3203125 37.83984375 107 41 C108.62351109 42.79394446 108.62351109 42.79394446 110 44 C96.99606218 46.7422097 84.27518374 47.75408737 71 48 C69.83243164 48.02191406 68.66486328 48.04382813 67.46191406 48.06640625 C63.74538067 48.12519665 60.02939832 48.16126076 56.3125 48.1875 C55.15516357 48.20063232 53.99782715 48.21376465 52.80541992 48.22729492 C37.94641438 48.24124906 22.94668433 45.8432185 12 35 C2.90168725 24.11805762 -0.24863919 13.97904771 0 0 Z " fill="#4021A9" transform="translate(200,376)"/>
<path d="M0 0 C1.29009446 2.45370908 2.38460207 4.92221786 3.453125 7.484375 C7.3573778 16.83764062 11.8811402 25.7147452 16.9375 34.5 C17.49791992 35.48967773 18.05833984 36.47935547 18.63574219 37.49902344 C22.70914089 44.44831166 27.5032992 50.14056602 33 56 C34.45573254 57.77688448 35.89798893 59.5651287 37.3125 61.375 C40.71896416 65.59423456 44.33105654 69.45061858 48.1875 73.25 C48.69990234 73.75724609 49.21230469 74.26449219 49.74023438 74.78710938 C51.86916427 76.89389175 53.99935509 78.99936454 56.1328125 81.1015625 C58.73864235 83.85283401 60.01502104 85.24894799 59.9375 89.125 C59.628125 90.07375 59.31875 91.0225 59 92 C58.7215625 93.423125 58.7215625 93.423125 58.4375 94.875 C58.293125 95.57625 58.14875 96.2775 58 97 C57.401875 96.236875 56.80375 95.47375 56.1875 94.6875 C54.15995888 92.08664741 54.15995888 92.08664741 52.25 90.3125 C51 89 51 89 51 87 C50.34 87 49.68 87 49 87 C47.66015625 85.671875 47.66015625 85.671875 46.0625 83.75 C43.47460822 80.69499912 40.82725591 77.72440715 38.08520508 74.80664062 C27.50987683 63.50166091 19.17915434 51.71771717 12 38 C11.63600098 37.3090625 11.27200195 36.618125 10.89697266 35.90625 C-0.92758071 13.32108971 -0.92758071 13.32108971 0 0 Z " fill="#3F21A5" transform="translate(155,154)"/>
<path d="M0 0 C0.33 0 0.66 0 1 0 C0.68746216 24.91778951 -2.75955361 54.85591972 -15 77 C-15.99 76.34 -16.98 75.68 -18 75 C-17.6634988 70.96198565 -17.12257291 67.95034358 -15.1640625 64.390625 C-12.73773389 59.66406729 -11.12756528 54.83762564 -9.625 49.75 C-9.32972412 48.75162109 -9.03444824 47.75324219 -8.73022461 46.72460938 C-4.46432932 31.45263587 -2.35455104 15.65691462 0 0 Z " fill="#381D93" transform="translate(318,146)"/>
<path d="M0 0 C0.33 0 0.66 0 1 0 C1.66541457 12.96326154 -1.87615193 22.31422789 -9 33 C-9.45139459 35.0492094 -9.45139459 35.0492094 -9.625 37.1875 C-9.74875 38.445625 -9.8725 39.70375 -10 41 C-10.33 41 -10.66 41 -11 41 C-11.06058594 40.26394531 -11.12117188 39.52789062 -11.18359375 38.76953125 C-11.26738281 37.79371094 -11.35117187 36.81789063 -11.4375 35.8125 C-11.51871094 34.84957031 -11.59992188 33.88664062 -11.68359375 32.89453125 C-11.91661526 30.02031606 -11.91661526 30.02031606 -12.734375 27.40625 C-13 25 -13 25 -11.70703125 22.82421875 C-11.08183594 22.11910156 -10.45664062 21.41398437 -9.8125 20.6875 C-4.44249443 14.22637776 -1.7533406 8.18225613 0 0 Z " fill="#3D20A0" transform="translate(356,365)"/>
<path d="M0 0 C1.06714567 3.201437 0.97633438 3.91625943 0.109375 7.01953125 C-0.10589844 7.79490234 -0.32117188 8.57027344 -0.54296875 9.36914062 C-0.89294922 10.57860352 -0.89294922 10.57860352 -1.25 11.8125 C-1.46785156 12.60720703 -1.68570312 13.40191406 -1.91015625 14.22070312 C-3.1941152 18.75961066 -4.72209608 22.83947549 -7 27 C-7.99 26.34 -8.98 25.68 -10 25 C-9.58209811 19.98517734 -8.4240177 16.47697856 -6.046875 12.05859375 C-4.9757508 9.95231593 -4.16390281 7.85083292 -3.375 5.625 C-2 2 -2 2 0 0 Z " fill="#3D20A1" transform="translate(310,196)"/>
<path d="M0 0 C0.33 0 0.66 0 1 0 C3.29612756 15.74487472 3.29612756 15.74487472 3 23 C2.34 23 1.68 23 1 23 C0.13190561 17.79826905 -0.12515348 12.83021184 -0.0625 7.5625 C-0.05798828 6.83095703 -0.05347656 6.09941406 -0.04882812 5.34570312 C-0.03718148 3.56376581 -0.01925191 1.78187137 0 0 Z " fill="#331B87" transform="translate(212,272)"/>
</svg>
