<?xml version="1.0" encoding="UTF-8"?>
<svg version="1.1" xmlns="http://www.w3.org/2000/svg" width="512" height="512">
<path d="M0 0 C168.96 0 337.92 0 512 0 C512 168.96 512 337.92 512 512 C343.04 512 174.08 512 0 512 C0 343.04 0 174.08 0 0 Z " fill="#39A6F5" transform="translate(0,0)"/>
<path d="M0 0 C2.5 0.3125 2.5 0.3125 5 1 C8.91045207 8.82090413 5.55296107 21.72342943 4.25 30.0625 C2.65949485 40.79292891 1.38731017 51.51168147 0.30392456 62.30386353 C-2.48391284 89.82878019 -6.49211106 117.99738075 -18.95458984 143.04345703 C-20.26932409 145.76646097 -21.01125917 147.70601065 -20.89453125 150.75390625 C-19.86257207 153.34507013 -18.94183979 154.2146703 -16.6875 155.8125 C-11.55286154 159.88225451 -8.55433074 165.820661 -7.69042969 172.33398438 C-7.60180664 173.24470703 -7.51318359 174.15542969 -7.421875 175.09375 C-5.52621165 193.32548648 -2.18446686 210.06860643 5 227 C5.30421875 227.73605469 5.6084375 228.47210938 5.921875 229.23046875 C13.89831686 247.87715081 24.02523414 265.74127945 35.06542969 282.7199707 C42.22811521 293.80399989 43.31803319 304.25274024 43.20581055 317.18603516 C43.18736561 319.39106635 43.18530268 321.59568033 43.18554688 323.80078125 C43.14803131 334.55590608 43.14803131 334.55590608 42 338 C41.34 338 40.68 338 40 338 C39.87367188 338.5775 39.74734375 339.155 39.6171875 339.75 C38.99696694 342.01105724 38.17861757 343.90910001 37.125 346 C36.79757812 346.66 36.47015625 347.32 36.1328125 348 C35 350 35 350 33.390625 351.8359375 C31.47729853 354.81341745 31.66396326 357.11051374 31.625 360.625 C31.18178557 368.52899067 29.60799146 374.43187585 23.87890625 380.09765625 C16.72533548 385.97251117 10.45337204 387.44112239 1.28125 387.3359375 C-3.34315359 386.86248666 -7.00562969 385.31198695 -11 383 C-11 382.34 -11 381.68 -11 381 C-11.91136719 381.13277344 -12.82273437 381.26554687 -13.76171875 381.40234375 C-21.37171898 382.43972687 -28.9275782 383.19636253 -36.6015625 383.53515625 C-37.95185295 383.5959436 -37.95185295 383.5959436 -39.329422 383.65795898 C-49.10927259 384.07660231 -58.88764379 384.36125724 -68.67602539 384.45996094 C-70.6892861 384.48672825 -72.70240557 384.52782581 -74.71508789 384.58300781 C-89.17506372 384.97094413 -99.87699153 383.02684962 -113 377 C-113.68732712 376.84833374 -114.37465424 376.69666748 -115.08280945 376.54040527 C-119.8452068 375.19801151 -123.09382289 368.77229093 -126 365 C-126.75216797 364.11248047 -126.75216797 364.11248047 -127.51953125 363.20703125 C-138.48710308 349.66295048 -137.19374481 331.40899639 -136 315 C-135.1914721 309.17159186 -133.41004895 304.2611028 -130.875 298.9375 C-122.07343641 279.30761901 -117.67903515 262.6139907 -119 241 C-119.0532947 239.60300493 -119.10328546 238.2058757 -119.1484375 236.80859375 C-119.4094933 231.24561888 -120.16344425 226.19754476 -121.5625 220.8125 C-123.18780856 213.68863514 -123.40454729 206.66847711 -123.5 199.375 C-123.53037354 198.24296143 -123.56074707 197.11092285 -123.59204102 195.94458008 C-123.59625457 187.66374311 -121.69030813 181.38898809 -118 174 C-118.59256592 173.74460449 -119.18513184 173.48920898 -119.7956543 173.22607422 C-122.22427335 171.87525742 -123.50554613 170.51705615 -125.26953125 168.3828125 C-128.92752796 164.06176129 -132.78091718 159.97066507 -136.6875 155.875 C-156.05985302 135.3828967 -171.0196467 113.96049937 -182.625 88.125 C-182.943479 87.41899658 -183.26195801 86.71299316 -183.59008789 85.9855957 C-186.56135536 79.14701617 -188.4624455 72.55327656 -188 65 C-187.505 64.505 -187.505 64.505 -187 64 C-181.09694346 64.34238996 -177.32546801 65.52666772 -172.1875 68.625 C-171.58566895 68.98400391 -170.98383789 69.34300781 -170.36376953 69.71289062 C-168.56552645 70.79269346 -166.78121825 71.8923858 -165 73 C-164.03449219 73.59554687 -163.06898438 74.19109375 -162.07421875 74.8046875 C-159.36290627 76.50759578 -156.67816559 78.24547305 -154 80 C-153.03449219 80.62648438 -152.06898438 81.25296875 -151.07421875 81.8984375 C-139.03644304 89.79871572 -127.85111134 98.56271425 -117 108 C-116.14664063 108.73992187 -115.29328125 109.47984375 -114.4140625 110.2421875 C-102.7127669 120.58022536 -92.35290039 131.49822733 -83 144 C-80.55032347 143.51873611 -78.10875718 143.02504157 -75.67578125 142.46484375 C-74.89589844 142.29082031 -74.11601562 142.11679688 -73.3125 141.9375 C-72.16201172 141.67259766 -72.16201172 141.67259766 -70.98828125 141.40234375 C-68.20278597 141.02730321 -65.61905307 140.96019465 -62.81323242 140.97485352 C-61.91207199 140.97848404 -61.01091156 140.98211456 -60.08244324 140.9858551 C-59.39523697 140.99052292 -58.7080307 140.99519073 -58 141 C-58.02094727 139.76024414 -58.04189453 138.52048828 -58.06347656 137.24316406 C-58.13652496 132.59142865 -58.18203296 127.93974267 -58.21972656 123.28759766 C-58.2396956 121.28392986 -58.26688063 119.28031922 -58.30175781 117.27685547 C-58.66638119 95.77480015 -58.66638119 95.77480015 -54 86 C-53.61392578 85.17790039 -53.22785156 84.35580078 -52.83007812 83.50878906 C-51.65350936 81.13549824 -50.40863386 78.81689951 -49.125 76.5 C-48.29282594 74.96953476 -47.46211897 73.43827098 -46.6328125 71.90625 C-46.20492432 71.12024414 -45.77703613 70.33423828 -45.33618164 69.52441406 C-43.89358845 66.79895936 -42.54268755 64.03741354 -41.19140625 61.265625 C-37.76414431 54.3716317 -33.83271296 47.80798915 -29.8125 41.25 C-29.43971924 40.63948792 -29.06693848 40.02897583 -28.68286133 39.39996338 C-20.12452784 25.39728913 -11.66465328 11.66465328 0 0 Z " fill="#C48347" transform="translate(328,64)"/>
<path d="M0 0 C0.81663116 -0.00099701 1.63326233 -0.00199402 2.47463989 -0.00302124 C4.84255768 -0.00269411 7.21024626 0.00641447 9.578125 0.01953125 C10.28273361 0.02073975 10.98734222 0.02194824 11.71330261 0.02319336 C16.47438507 0.06743336 21.04442132 0.52736249 25.75 1.1875 C25.08852464 5.12727635 23.88440687 8.59444211 22.4375 12.3125 C12.68768604 39.14858623 12.43121605 68.72364313 23.5 95.25 C23.90734375 96.10722656 24.3146875 96.96445312 24.734375 97.84765625 C25.79405697 100.28900048 26.32038444 102.56777903 26.75 105.1875 C24.12800609 106.15477849 21.50284282 107.11134477 18.875 108.0625 C18.14796875 108.33191406 17.4209375 108.60132813 16.671875 108.87890625 C6.34144545 112.59423618 -3.82803673 113.64899397 -14.75 114.3125 C-15.75064987 114.37603668 -15.75064987 114.37603668 -16.77151489 114.44085693 C-30.26513652 115.28934065 -43.73166075 115.41393784 -57.25 115.1875 C-57.24887207 114.15044922 -57.24774414 113.11339844 -57.24658203 112.04492188 C-57.25031458 108.11552194 -57.29365964 104.18730414 -57.34765625 100.25830078 C-57.36557989 98.57315811 -57.37342871 96.88787145 -57.37011719 95.20263672 C-57.34944322 77.86751752 -61.79944247 64.83286716 -71.25 50.1875 C-71.89066406 49.19105469 -72.53132812 48.19460938 -73.19140625 47.16796875 C-77.14779456 41.13660575 -81.31767358 35.30398406 -85.68359375 29.5625 C-87.14441045 27.34759588 -87.82411642 25.77879165 -88.25 23.1875 C-65.51926188 1.06071869 -29.98318039 0.00984071 0 0 Z " fill="#E4E3E3" transform="translate(307.25,319.8125)"/>
<path d="M0 0 C0.91145833 1.66015625 1.82291667 3.3203125 2.734375 4.98046875 C4.30382631 7.48480926 6.15236284 9.69296848 8 12 C13.29869793 19.51335233 18.28307656 27.22164168 22.875 35.1875 C23.23166748 35.79118408 23.58833496 36.39486816 23.95581055 37.0168457 C30.87439854 49.29102384 31.53024781 60.51521363 31.25 74.25 C31.22988994 75.97784372 31.21164719 77.70571022 31.1953125 79.43359375 C31.1517063 83.62296926 31.08293339 87.81122607 31 92 C36.97339036 91.73531223 42.94669095 91.46870118 48.91992188 91.20043945 C50.94463884 91.10976372 52.96937791 91.01957989 54.99414062 90.92993164 C67.00461848 90.39778423 79.00460644 89.80847037 91 89 C91.46245117 89.95302002 91.92490234 90.90604004 92.40136719 91.88793945 C95.11453141 97.16965973 99.17985904 99.94991868 104.25 102.875 C111.92553494 105.17766048 118.89211866 104.84391031 126.06640625 101.19921875 C131.69434806 97.70875787 135.91151934 92.26544198 138 86 C138.12139491 83.54387046 138.17542192 81.08409804 138.1875 78.625 C138.20167969 77.31789063 138.21585938 76.01078125 138.23046875 74.6640625 C138.0164804 71.26201037 137.48144811 69.03316253 136 66 C136.70125 65.38125 137.4025 64.7625 138.125 64.125 C141.93527561 60.32554904 144.39056619 55.66238894 147 51 C147.598125 49.948125 148.19625 48.89625 148.8125 47.8125 C150.19263967 44.54374816 150.64815417 41.51845825 151 38 C151.33 38 151.66 38 152 38 C152.0269501 40.93756119 152.04681474 43.87487555 152.0625 46.8125 C152.07087891 47.64587891 152.07925781 48.47925781 152.08789062 49.33789062 C152.09111328 50.14033203 152.09433594 50.94277344 152.09765625 51.76953125 C152.10289307 52.50792236 152.10812988 53.24631348 152.11352539 54.00708008 C152 56 152 56 151 59 C150.34 59 149.68 59 149 59 C148.87367188 59.5775 148.74734375 60.155 148.6171875 60.75 C147.99696694 63.01105724 147.17861757 64.90910001 146.125 67 C145.63386719 67.99 145.63386719 67.99 145.1328125 69 C144 71 144 71 142.390625 72.8359375 C140.47729853 75.81341745 140.66396326 78.11051374 140.625 81.625 C140.18178557 89.52899067 138.60799146 95.43187585 132.87890625 101.09765625 C125.72533548 106.97251117 119.45337204 108.44112239 110.28125 108.3359375 C105.65684641 107.86248666 101.99437031 106.31198695 98 104 C98 103.34 98 102.68 98 102 C97.08863281 102.13277344 96.17726563 102.26554687 95.23828125 102.40234375 C87.62828102 103.43972687 80.0724218 104.19636253 72.3984375 104.53515625 C71.04814705 104.5959436 71.04814705 104.5959436 69.670578 104.65795898 C59.89072741 105.07660231 50.11235621 105.36125724 40.32397461 105.45996094 C38.3107139 105.48672825 36.29759443 105.52782581 34.28491211 105.58300781 C19.82493628 105.97094413 9.12300847 104.02684962 -4 98 C-4.68732712 97.84833374 -5.37465424 97.69666748 -6.08280945 97.54040527 C-10.8452068 96.19801151 -14.09382289 89.77229093 -17 86 C-17.50144531 85.40832031 -18.00289062 84.81664062 -18.51953125 84.20703125 C-29.48955656 70.65992063 -28.18826352 52.41179542 -27 36 C-26.15695151 29.80073681 -24.10296753 24.34541478 -21.5 18.6875 C-21.19191406 17.99849609 -20.88382813 17.30949219 -20.56640625 16.59960938 C-19.1126934 13.36463035 -17.62177792 10.15435806 -16 7 C-15.67 7.66 -15.34 8.32 -15 9 C-14.31292969 8.51789063 -13.62585938 8.03578125 -12.91796875 7.5390625 C-11.56638672 6.59160156 -11.56638672 6.59160156 -10.1875 5.625 C-9.29417969 4.99851562 -8.40085938 4.37203125 -7.48046875 3.7265625 C-2.12669683 0 -2.12669683 0 0 0 Z " fill="#8D8D8D" transform="translate(219,343)"/>
<path d="M0 0 C2.5 0.3125 2.5 0.3125 5 1 C8.91045207 8.82090413 5.55296107 21.72342943 4.25 30.0625 C2.65949485 40.79292891 1.38731017 51.51168147 0.30392456 62.30386353 C-2.84300167 93.37414124 -9.1570514 122.41193 -22 151 C-23.04414063 150.58041016 -23.04414063 150.58041016 -24.109375 150.15234375 C-25.06328125 149.77207031 -26.0171875 149.39179688 -27 149 C-27.97453125 148.60941406 -28.9490625 148.21882812 -29.953125 147.81640625 C-36.61817593 145.28147574 -42.96033657 143.48510039 -49.984375 142.33984375 C-50.76022949 142.20831909 -51.53608398 142.07679443 -52.33544922 141.94128418 C-54.22272931 141.62213319 -56.11124255 141.31028822 -58 141 C-58.0997571 135.09591456 -58.17188395 129.19233243 -58.21972656 123.28759766 C-58.2396956 121.28392986 -58.26688063 119.28031922 -58.30175781 117.27685547 C-58.66638119 95.77480015 -58.66638119 95.77480015 -54 86 C-53.61392578 85.17790039 -53.22785156 84.35580078 -52.83007812 83.50878906 C-51.65350936 81.13549824 -50.40863386 78.81689951 -49.125 76.5 C-48.29282594 74.96953476 -47.46211897 73.43827098 -46.6328125 71.90625 C-46.20492432 71.12024414 -45.77703613 70.33423828 -45.33618164 69.52441406 C-43.89358845 66.79895936 -42.54268755 64.03741354 -41.19140625 61.265625 C-37.76414431 54.3716317 -33.83271296 47.80798915 -29.8125 41.25 C-29.25332886 40.33423187 -29.25332886 40.33423187 -28.68286133 39.39996338 C-20.12452784 25.39728913 -11.66465328 11.66465328 0 0 Z " fill="#885C33" transform="translate(328,64)"/>
<path d="M0 0 C5.90305654 0.34238996 9.67453199 1.52666772 14.8125 4.625 C15.41433105 4.98400391 16.01616211 5.34300781 16.63623047 5.71289062 C18.43447355 6.79269346 20.21878175 7.8923858 22 9 C22.96550781 9.59554687 23.93101562 10.19109375 24.92578125 10.8046875 C27.63709373 12.50759578 30.32183441 14.24547305 33 16 C33.96550781 16.62648437 34.93101562 17.25296875 35.92578125 17.8984375 C47.96355696 25.79871572 59.14888866 34.56271425 70 44 C71.28003906 45.10988281 71.28003906 45.10988281 72.5859375 46.2421875 C98.62282609 69.24565217 98.62282609 69.24565217 105 82 C104.39414063 82.20753906 103.78828125 82.41507812 103.1640625 82.62890625 C89.22044303 87.75586787 78.08719424 97.5996355 70 110 C66.11853499 109.45779979 64.67737166 107.87918269 62.1875 104.9375 C58.74498322 100.96841404 55.23506586 97.09850009 51.61889648 93.28662109 C31.75045795 72.33572812 16.26539512 50.59505117 4.375 24.125 C4.056521 23.41899658 3.73804199 22.71299316 3.40991211 21.9855957 C0.43864464 15.14701617 -1.4624455 8.55327656 -1 1 C-0.67 0.67 -0.34 0.34 0 0 Z " fill="#885C33" transform="translate(141,128)"/>
<path d="M0 0 C4.06061789 1.36551752 6.58943346 3.18998959 9.6875 6.125 C12.40768161 9.08928824 12.40768161 9.08928824 16 10 C17.59704238 12.36874756 19.0649879 14.72322203 20.5 17.1875 C20.90347656 17.86103516 21.30695313 18.53457031 21.72265625 19.22851562 C28.77102232 31.15025692 30.74386428 43.80034833 28.4375 57.5625 C26.21703542 66.03198632 21.19209452 74.80790548 15 81 C14.34 81 13.68 81 13 81 C13.72896484 82.01126953 13.72896484 82.01126953 14.47265625 83.04296875 C17.49547798 88.89533717 17.09180317 97.29906722 15.23828125 103.58203125 C14.29340478 105.53527391 13.26506836 107.24028553 12 109 C11.401875 109.9075 10.80375 110.815 10.1875 111.75 C5.12134555 116.96090172 -1.90997858 120.25475574 -9.1875 120.4375 C-16.38343574 120.27285544 -21.8926706 117.86230701 -27.1796875 112.9921875 C-32 107.74598394 -32 107.74598394 -32 104 C-30.35451172 103.49339844 -30.35451172 103.49339844 -28.67578125 102.9765625 C-27.22132093 102.52614898 -25.76689569 102.07562216 -24.3125 101.625 C-23.59126953 101.40328125 -22.87003906 101.1815625 -22.12695312 100.953125 C-19.08315571 100.00801895 -16.11823157 99.04859725 -13.16796875 97.8359375 C-11 97 -11 97 -8 97 C-8.6030076 95.47870673 -9.2074755 93.95799227 -9.8125 92.4375 C-10.14894531 91.59058594 -10.48539062 90.74367188 -10.83203125 89.87109375 C-11.65477524 87.84862944 -12.54001318 85.8510358 -13.46875 83.875 C-15.58327608 78.9661113 -16.56634899 73.76856978 -17.6875 68.5625 C-17.91244141 67.54478516 -18.13738281 66.52707031 -18.36914062 65.47851562 C-18.91892069 62.98695914 -19.46236079 60.49419925 -20 58 C-19.01 57.505 -19.01 57.505 -18 57 C-17.88914062 56.31164062 -17.77828125 55.62328125 -17.6640625 54.9140625 C-16.73546601 50.8391626 -14.63578201 47.85106077 -12.375 44.375 C-11.70102173 43.31647827 -11.70102173 43.31647827 -11.01342773 42.23657227 C-8.98997066 39.06334985 -6.94003151 35.90788573 -4.88671875 32.75390625 C0.45935366 24.50011994 4.2313407 18.15066758 3 8 C2.20553508 5.17371387 1.19740792 2.69416782 0 0 Z " fill="#8E8D8D" transform="translate(342,328)"/>
<path d="M0 0 C0.33 0 0.66 0 1 0 C1.0269501 2.93756119 1.04681474 5.87487555 1.0625 8.8125 C1.07087891 9.64587891 1.07925781 10.47925781 1.08789062 11.33789062 C1.09111328 12.14033203 1.09433594 12.94277344 1.09765625 13.76953125 C1.10289307 14.50792236 1.10812988 15.24631348 1.11352539 16.00708008 C1 18 1 18 0 21 C-0.66 21 -1.32 21 -2 21 C-2.12632812 21.5775 -2.25265625 22.155 -2.3828125 22.75 C-3.00303306 25.01105724 -3.82138243 26.90910001 -4.875 29 C-5.20242188 29.66 -5.52984375 30.32 -5.8671875 31 C-7 33 -7 33 -8.609375 34.8359375 C-10.52270147 37.81341745 -10.33603674 40.11051374 -10.375 43.625 C-10.81821443 51.52899067 -12.39200854 57.43187585 -18.12109375 63.09765625 C-25.27466452 68.97251117 -31.54662796 70.44112239 -40.71875 70.3359375 C-45.34315359 69.86248666 -49.00562969 68.31198695 -53 66 C-53 65.34 -53 64.68 -53 64 C-53.91136719 64.13277344 -54.82273437 64.26554687 -55.76171875 64.40234375 C-63.37171898 65.43972687 -70.9275782 66.19636253 -78.6015625 66.53515625 C-79.95185295 66.5959436 -79.95185295 66.5959436 -81.329422 66.65795898 C-91.10927259 67.07660231 -100.88764379 67.36125724 -110.67602539 67.45996094 C-112.6892861 67.48672825 -114.70240557 67.52782581 -116.71508789 67.58300781 C-131.17506372 67.97094413 -141.87699153 66.02684962 -155 60 C-155.68732712 59.84833374 -156.37465424 59.69666748 -157.08280945 59.54040527 C-161.8452068 58.19801151 -165.09382289 51.77229093 -168 48 C-168.50144531 47.40832031 -169.00289062 46.81664062 -169.51953125 46.20703125 C-177.58114365 36.25157975 -178.77239961 24.25540712 -178 12 C-176.13230962 14.80153556 -175.57935659 16.32963987 -174.8125 19.5 C-171.79403617 29.85333092 -164.81968729 39.77355949 -155.5859375 45.49609375 C-141.6784456 52.75124045 -128.42887935 53.20273819 -113 53.1875 C-111.87662735 53.18858765 -111.87662735 53.18858765 -110.7305603 53.18969727 C-93.77716819 53.18790541 -76.90485331 52.20967263 -60 51 C-59.53754883 51.95302002 -59.07509766 52.90604004 -58.59863281 53.88793945 C-55.88546859 59.16965973 -51.82014096 61.94991868 -46.75 64.875 C-39.07446506 67.17766048 -32.10788134 66.84391031 -24.93359375 63.19921875 C-19.30565194 59.70875787 -15.08848066 54.26544198 -13 48 C-12.87860509 45.54387046 -12.82457808 43.08409804 -12.8125 40.625 C-12.79832031 39.31789063 -12.78414062 38.01078125 -12.76953125 36.6640625 C-12.9835196 33.26201037 -13.51855189 31.03316253 -15 28 C-14.29875 27.38125 -13.5975 26.7625 -12.875 26.125 C-9.06472439 22.32554904 -6.60943381 17.66238894 -4 13 C-3.401875 11.948125 -2.80375 10.89625 -2.1875 9.8125 C-0.80736033 6.54374816 -0.35184583 3.51845825 0 0 Z " fill="#2771A7" transform="translate(370,381)"/>
<path d="M0 0 C5.25595436 0.13563753 9.51669585 1.5317812 13.9375 4.375 C22.09940916 13.41927772 23.11602683 26.51372202 23.125 38.125 C23.13724609 38.97449219 23.14949219 39.82398438 23.16210938 40.69921875 C23.16404297 41.51519531 23.16597656 42.33117187 23.16796875 43.171875 C23.17207764 43.90760742 23.17618652 44.64333984 23.18041992 45.40136719 C22.9375 47.375 22.9375 47.375 20.9375 50.375 C12.68943109 53.1243563 2.73280048 52.103886 -5.0625 48.375 C-9.99857433 45.76726262 -13.28037192 42.73139621 -15.0625 37.375 C-16.94269746 25.72928718 -12.751153 11.90746805 -6.0625 2.375 C-3.72305271 0.03555271 -3.18650261 0.05619934 0 0 Z " fill="#FCFBFA" transform="translate(297.0625,255.625)"/>
<path d="M0 0 C7.96142787 0.25354866 12.30027215 4.28789014 17.625 9.85546875 C22.6831006 15.70389757 25.62947342 20.94063462 25.1640625 28.828125 C24.03318134 35.61341196 21.28545126 40.75824871 15.8046875 44.95703125 C10.69267459 48.32940478 6.14179013 51.1556613 -0.0625 51.5625 C-4.52660543 49.81187042 -6.26726363 47.51047602 -8.25 43.3125 C-12.88903496 31.5296068 -15.79318743 19.64400873 -11.25 7.3125 C-8.75 4.4375 -8.75 4.4375 -6.25 2.3125 C-3.86629091 -0.07120909 -3.2563401 0.01661398 0 0 Z " fill="#FDFCFB" transform="translate(231.25,268.6875)"/>
<path d="M0 0 C5.90305654 0.34238996 9.67453199 1.52666772 14.8125 4.625 C15.41433105 4.98400391 16.01616211 5.34300781 16.63623047 5.71289062 C18.43447355 6.79269346 20.21878175 7.8923858 22 9 C22.96550781 9.59554687 23.93101562 10.19109375 24.92578125 10.8046875 C27.63709373 12.50759578 30.32183441 14.24547305 33 16 C33.96550781 16.62648437 34.93101562 17.25296875 35.92578125 17.8984375 C47.96355696 25.79871572 59.14888866 34.56271425 70 44 C71.28003906 45.10988281 71.28003906 45.10988281 72.5859375 46.2421875 C98.62282609 69.24565217 98.62282609 69.24565217 105 82 C102.03 82.99 99.06 83.98 96 85 C95.59620117 84.45472656 95.19240234 83.90945312 94.77636719 83.34765625 C90.32175727 77.46183625 85.49809165 72.18331418 80.25 67 C79.45287598 66.20964355 78.65575195 65.41928711 77.83447266 64.60498047 C72.14080501 59.01073524 66.37356907 53.81558552 60 49 C58.79132654 48.06293855 57.58301999 47.12540372 56.375 46.1875 C42.28297884 35.34277827 27.29158298 26.0393594 12 17 C11.11441406 16.44699219 10.22882813 15.89398438 9.31640625 15.32421875 C6.33859856 13.62189698 3.31066661 12.84389541 0 12 C-1.17661508 8.32307787 -1.14475933 4.8361222 -1 1 C-0.67 0.67 -0.34 0.34 0 0 Z " fill="#936C49" transform="translate(141,128)"/>
<path d="M0 0 C3.01309805 2.36743418 3.92798936 3.54040269 4.53125 7.390625 C4.42227858 20.84859519 4.42227858 20.84859519 0 27 C-0.598125 27.9075 -1.19625 28.815 -1.8125 29.75 C-6.87865445 34.96090172 -13.90997858 38.25475574 -21.1875 38.4375 C-28.38343574 38.27285544 -33.8926706 35.86230701 -39.1796875 30.9921875 C-44 25.74598394 -44 25.74598394 -44 22 C-42.96101563 21.68546875 -41.92203125 21.3709375 -40.8515625 21.046875 C-25.38197914 16.32330973 -12.17049031 11.08866895 0 0 Z " fill="#CA4141" transform="translate(354,410)"/>
<path d="M0 0 C1.88121665 3.47766197 3.08530304 7.08019517 4.375 10.8125 C14.14639786 37.73376287 30.35211623 59.75712218 49.60302734 80.49414062 C52.01402001 83.09305758 54.41418662 85.70188496 56.8125 88.3125 C57.27261475 88.81249512 57.73272949 89.31249023 58.20678711 89.82763672 C60.71855831 92.56683556 63.1708322 95.34304073 65.5625 98.1875 C67.68926968 101.00422443 67.68926968 101.00422443 70 102 C69.33989524 104.84550012 68.48275034 107.52325999 67.4375 110.25 C67.16808594 110.95640625 66.89867187 111.6628125 66.62109375 112.390625 C66.41613281 112.92171875 66.21117187 113.4528125 66 114 C65.46375 113.278125 64.9275 112.55625 64.375 111.8125 C62.06051564 108.89466813 62.06051564 108.89466813 59 106.5625 C55.89604313 103.91120351 54.2532327 101.37984906 52 98 C50.01777409 95.91084904 47.96735256 93.90564438 45.90625 91.89453125 C43.72684185 89.7285211 41.77287392 87.51157139 40 85 C40 84.34 40 83.68 40 83 C39.01 82.67 38.02 82.34 37 82 C35.13596992 79.86967991 33.40010431 77.74634279 31.6875 75.5 C31.19765625 74.86578125 30.7078125 74.2315625 30.203125 73.578125 C25.15635023 66.99188312 20.68910684 60.44197602 17 53 C16.06793467 51.26504685 15.13560527 49.53022211 14.19604492 47.79931641 C10.15234047 40.33446766 6.36909075 32.79823809 3 25 C2.65839844 24.25878906 2.31679687 23.51757812 1.96484375 22.75390625 C-0.98392669 15.49855944 -0.25465298 7.68674722 0 0 Z " fill="#2972A7" transform="translate(140,136)"/>
<path d="M0 0 C2.5 0.3125 2.5 0.3125 5 1 C6.50156874 4.00313748 6.09281204 6.79067522 6.0625 10.125 C6.05347656 11.40632813 6.04445313 12.68765625 6.03515625 14.0078125 C6.02355469 14.99523437 6.01195312 15.98265625 6 17 C5.34 16.01 4.68 15.02 4 14 C-1.77322665 14.64370471 -3.85632012 17.51639573 -7.5 21.77734375 C-18.52446561 35.64026258 -27.0356292 51.78607801 -36 67 C-36.69319336 68.1748999 -36.69319336 68.1748999 -37.40039062 69.37353516 C-49.88600181 90.61157487 -49.88600181 90.61157487 -57 114 C-57.33 114 -57.66 114 -58 114 C-58.79935778 96.50294626 -53.61454222 84.73128392 -45.33618164 69.52441406 C-43.89358845 66.79895936 -42.54268755 64.03741354 -41.19140625 61.265625 C-37.76414431 54.3716317 -33.83271296 47.80798915 -29.8125 41.25 C-29.25332886 40.33423187 -29.25332886 40.33423187 -28.68286133 39.39996338 C-20.12452784 25.39728913 -11.66465328 11.66465328 0 0 Z " fill="#906D4D" transform="translate(328,64)"/>
<path d="M0 0 C2.83206941 0 4.49271602 0.53747637 6.59375 2.453125 C11.45872487 7.93814569 13.68260588 12.66152515 13.49609375 20.078125 C11.83993422 29.83251339 5.0751532 38.63753062 -0.42480469 46.64160156 C-3.77605129 51.54276733 -6.57372067 56.57279624 -9 62 C-9.66 62 -10.32 62 -11 62 C-11.668516 40.03924924 -9.76962367 21.23759308 -1 1 C-0.67 0.67 -0.34 0.34 0 0 Z " fill="#444342" transform="translate(333,323)"/>
<path d="M0 0 C4.96010208 2.16344878 6.98977619 5.63614236 10 10 C10.36399902 10.52287598 10.72799805 11.04575195 11.10302734 11.58447266 C32.89279479 43.01288159 32.89279479 43.01288159 32 57 C31.34 56.319375 30.68 55.63875 30 54.9375 C24.67258508 49.63976428 19.01658852 44.97743804 12.9375 40.5625 C5.49080397 35.02448995 0.15621266 29.87052187 -3 21 C-3.39105372 18.27504366 -3.42176807 15.62392343 -3.375 12.875 C-3.38660156 12.18535156 -3.39820313 11.49570312 -3.41015625 10.78515625 C-3.384698 6.34693408 -2.62931528 3.57531231 0 0 Z " fill="#444342" transform="translate(217,345)"/>
<path d="M0 0 C0.9590625 1.0828125 0.9590625 1.0828125 1.9375 2.1875 C8.03776838 8.28776838 15.14250719 11.01524296 23.64453125 11.09765625 C25.36721471 11.09105593 27.08988483 11.07919948 28.8125 11.0625 C29.69615234 11.05798828 30.57980469 11.05347656 31.49023438 11.04882812 C33.66018559 11.03709866 35.83010172 11.01916495 38 11 C38.08121924 12.60332791 38.13929134 14.20784026 38.1875 15.8125 C38.23970703 17.15248047 38.23970703 17.15248047 38.29296875 18.51953125 C38 21 38 21 36.67578125 22.76171875 C31.67995047 26.45327669 24.33873583 25.41020238 18.48828125 24.69140625 C13.53984127 23.7420451 9.95331936 22.25050703 6 19 C5.43925781 18.53980469 4.87851562 18.07960938 4.30078125 17.60546875 C1.38550174 14.81250866 0.11516176 12.9584817 -0.375 8.87890625 C-0.375 5.89538409 -0.26344442 2.97106762 0 0 Z " fill="#9D6634" transform="translate(282,295)"/>
<path d="M0 0 C0.33 0 0.66 0 1 0 C1.34728955 8.68223875 0.20870195 14.01394924 -5.5625 20.6796875 C-7 22 -7 22 -9 22 C-9 22.66 -9 23.32 -9 24 C-20.47034765 29.16973415 -20.47034765 29.16973415 -26 28 C-32.02635119 23.2954664 -34.43745944 16.25871116 -36 9 C-36.03888349 6.66699067 -36.0448635 4.33290199 -36 2 C-32.15466688 4.38675849 -30.95858737 7.00121745 -29 11 C-27.39450853 13.52311011 -27.39450853 13.52311011 -25 15 C-18.74628719 15.12507426 -13.13964608 12.4344364 -8 9 C-5.65560298 6.70556554 -3.56110659 4.33995641 -1.49609375 1.79296875 C-1.00238281 1.20128906 -0.50867188 0.60960937 0 0 Z " fill="#9E6836" transform="translate(255,304)"/>
<path d="M0 0 C0.33 0 0.66 0 1 0 C1.02696009 2.7708983 1.04681952 5.5415345 1.0625 8.3125 C1.07087891 9.09818359 1.07925781 9.88386719 1.08789062 10.69335938 C1.09272461 11.8293457 1.09272461 11.8293457 1.09765625 12.98828125 C1.10551147 14.03302612 1.10551147 14.03302612 1.11352539 15.09887695 C1 17 1 17 0 20 C-0.15839983 21.56819384 -0.2722856 23.14107824 -0.359375 24.71484375 C-2.53953013 59.66932574 -7.74051257 94.47157202 -18 128 C-18.66 128 -19.32 128 -20 128 C-20.66 131.3 -21.32 134.6 -22 138 C-23.65 137.01 -25.3 136.02 -27 135 C-26.43917091 130.63584723 -25.33501692 127.26781455 -23.4375 123.3125 C-10.37390064 94.07203247 -7.23634639 61.9098731 -3.9140625 30.421875 C-2.84005021 20.24917489 -1.47152856 10.12233284 0 0 Z " fill="#3178AA" transform="translate(333,81)"/>
<path d="M0 0 C0.68266263 8.19195155 -1.37079523 13.01086173 -5.8125 19.75 C-10.93233541 25.01611642 -17.96282212 28.26863708 -25.3125 28.375 C-30.86037249 28.29982558 -34.28752738 26.84526649 -39 24 C-39 23.34 -39 22.68 -39 22 C-37.845 21.67 -36.69 21.34 -35.5 21 C-23.17141469 16.85151869 -11.46340225 10.60066023 -2.30078125 1.26953125 C-1 0 -1 0 0 0 Z " fill="#F94E4F" transform="translate(358,420)"/>
<path d="M0 0 C0.474375 0.639375 0.94875 1.27875 1.4375 1.9375 C7.79516203 9.53568145 13.7186588 15.26984072 23 19 C23.7528125 19.30679687 24.505625 19.61359375 25.28125 19.9296875 C35.73304261 23.7939066 47.01268553 23.19835152 58 23.1875 C58.7489151 23.1882251 59.4978302 23.1889502 60.2694397 23.18969727 C77.22283181 23.18790541 94.09514669 22.20967263 111 21 C111.44988281 21.93070312 111.89976562 22.86140625 112.36328125 23.8203125 C113.95584729 26.91422362 115.74877661 29.36063465 118 32 C116.68 32 115.36 32 114 32 C111.58152803 29.49515403 111 28.53986194 111 25 C109.71206543 25.14002441 108.42413086 25.28004883 107.09716797 25.42431641 C93.52641283 26.82249228 80.06954515 27.37263039 66.4296875 27.37060547 C63.10626626 27.37502491 59.78413006 27.4116658 56.4609375 27.44921875 C38.91875453 27.54143926 21.61780347 26.45056317 8 14 C6.62131719 12.37064759 5.28725907 10.70250393 4 9 C3.2575 8.154375 2.515 7.30875 1.75 6.4375 C0 4 0 4 0 0 Z " fill="#255F89" transform="translate(199,411)"/>
<path d="M0 0 C3.34367234 3.16647311 6.1007412 6.65510386 8.875 10.3125 C14.60886828 17.7462406 20.94162547 24.51991122 27.40771484 31.31494141 C32.98210079 37.21411525 38.33009271 43.32400963 43.58984375 49.50390625 C44.94913951 51.11795718 44.94913951 51.11795718 47 52 C47 52.99 47 53.98 47 55 C43.80836144 53.60352107 41.78865914 51.98396794 39.42578125 49.4375 C38.76288086 48.72827393 38.09998047 48.01904785 37.41699219 47.28833008 C36.72250977 46.53318115 36.02802734 45.77803223 35.3125 45 C34.59352539 44.22615967 33.87455078 43.45231934 33.13378906 42.6550293 C31.08252906 40.44271804 29.03965574 38.2230075 27 36 C26.13246094 35.05769531 25.26492187 34.11539063 24.37109375 33.14453125 C22.22331117 30.78315703 20.10666293 28.39812767 18 26 C17.5045166 25.44151367 17.0090332 24.88302734 16.49853516 24.30761719 C14.84550129 22.44085873 13.20298236 20.56529249 11.5625 18.6875 C11.04139648 18.10009033 10.52029297 17.51268066 9.98339844 16.9074707 C7.25145812 13.75311651 5.27051919 11.05501036 4 7 C3.34 7 2.68 7 2 7 C0 4 0 4 0 0 Z " fill="#296086" transform="translate(163,186)"/>
<path d="M0 0 C2.5 0.5 2.5 0.5 4.875 2.0625 C6.5 4.5 6.5 4.5 6.4375 8.125 C5.5 11.5 5.5 11.5 2.5 13.5 C-1.0625 13.3125 -1.0625 13.3125 -4.5 12.5 C-6.66551116 9.25173326 -7.05156953 8.26905843 -6.5 4.5 C-4.50600369 1.76748653 -3.3376027 0.66752054 0 0 Z " fill="#4D4D4D" transform="translate(236.5,293.5)"/>
<path d="M0 0 C3.5625 0.3125 3.5625 0.3125 5.5625 1.375 C7.17897822 4.50692656 6.34915296 6.98435286 5.5625 10.3125 C3.5625 12.3125 3.5625 12.3125 0.125 12.6875 C-3.4375 12.3125 -3.4375 12.3125 -5.4375 10.6875 C-6.77930884 7.50070399 -6.36697204 5.60140107 -5.4375 2.3125 C-3.4375 0.3125 -3.4375 0.3125 0 0 Z " fill="#4A4A4A" transform="translate(300.4375,281.6875)"/>
<path d="M0 0 C1.48610358 4.29100106 0.17466069 7.04802857 -1.30859375 11.171875 C-2.03634123 14.14865001 -1.96150872 16.79105712 -1.89868164 19.83691406 C-2.08100009 23.72930322 -3.31710963 27.31066084 -4.5 31 C-4.73847656 31.77472656 -4.97695313 32.54945313 -5.22265625 33.34765625 C-5.80513197 35.23487758 -6.40115303 37.11790951 -7 39 C-8.65 38.01 -10.3 37.02 -12 36 C-11.42334474 31.42794758 -10.17449911 27.80136146 -8.25 23.625 C-4.8456578 15.92822634 -2.36768679 8.06689747 0 0 Z " fill="#2E6D9A" transform="translate(318,180)"/>
<path d="M0 0 C16.5 0 33 0 50 0 C48.02 0.99 48.02 0.99 46 2 C45.67 2.33 45.34 2.66 45 3 C36.96301311 4.41069486 28.6882605 4.15037978 20.5625 4.125 C18.66467773 4.13080078 18.66467773 4.13080078 16.72851562 4.13671875 C15.52001953 4.13542969 14.31152344 4.13414062 13.06640625 4.1328125 C11.4258728 4.13112061 11.4258728 4.13112061 9.75219727 4.12939453 C7 4 7 4 4 3 C4 2.34 4 1.68 4 1 C2.68 0.67 1.36 0.34 0 0 Z " fill="#3292D8" transform="translate(237,447)"/>
<path d="M0 0 C0.4125 0.886875 0.825 1.77375 1.25 2.6875 C2.90127288 5.81312366 4.71331259 8.31905614 7 11 C5.68 11 4.36 11 3 11 C0.58152803 8.49515403 0 7.53986194 0 4 C-0.61931396 4.06058594 -1.23862793 4.12117188 -1.87670898 4.18359375 C-4.72989582 4.46016326 -7.5836732 4.73011734 -10.4375 5 C-11.41138672 5.09539062 -12.38527344 5.19078125 -13.38867188 5.2890625 C-19.29048849 5.84174098 -25.07255678 6.09807559 -31 6 C-31 5.67 -31 5.34 -31 5 C-29.35 4.67 -27.7 4.34 -26 4 C-28.64 3.67 -31.28 3.34 -34 3 C-34 2.67 -34 2.34 -34 2 C-29.64013527 1.71393262 -25.2801901 1.42913367 -20.92016602 1.14550781 C-19.43707034 1.04885117 -17.95399718 0.95184848 -16.47094727 0.85449219 C-14.33876278 0.7145832 -12.20650033 0.57592049 -10.07421875 0.4375 C-8.79119873 0.35371094 -7.50817871 0.26992188 -6.1862793 0.18359375 C-4.12669445 0.06492025 -2.063001 0 0 0 Z " fill="#2F648D" transform="translate(310,432)"/>
<path d="M0 0 C0.33 0 0.66 0 1 0 C1.01458252 0.59312988 1.02916504 1.18625977 1.04418945 1.79736328 C1.33463951 12.40340874 1.79456937 22.41111311 4.3671875 32.7265625 C5.47436283 38.45380281 5.23825619 44.19360841 5 50 C2.90940764 46.86411146 2.51049195 45.15944437 1.9375 41.5 C1.78152344 40.5409375 1.62554687 39.581875 1.46484375 38.59375 C0.28469631 29.46992107 -0.13572447 20.51062059 -0.0625 11.3125 C-0.05798828 10.21744141 -0.05347656 9.12238281 -0.04882812 7.99414062 C-0.03719156 5.32936691 -0.02084564 2.66471483 0 0 Z " fill="#3580B5" transform="translate(204,255)"/>
<path d="M0 0 C0.33 0 0.66 0 1 0 C1.61669978 8.74343248 1.44402028 15.82093399 -4 23 C-8.25580249 27.20962742 -11.98416184 30.14210759 -18 31 C-17.34 30.67 -16.68 30.34 -16 30 C-16 29.34 -16 28.68 -16 28 C-14.64402727 26.90695009 -13.23834884 25.8751876 -11.8125 24.875 C-4.74534944 19.45240649 -2.08562875 14.82927883 -0.6875 6 C-0.44004283 4.00218061 -0.20454082 2.00266832 0 0 Z " fill="#4B7BB1" transform="translate(358,419)"/>
<path d="M0 0 C0.33 0 0.66 0 1 0 C1.58502955 14.21405121 1.58502955 14.21405121 -2 21 C-4.1875 22.5 -4.1875 22.5 -6 23 C-5.38334864 17.60607261 -4.12077204 12.71604717 -2.4375 7.5625 C-2.20353516 6.83095703 -1.96957031 6.09941406 -1.72851562 5.34570312 C-1.15732778 3.56219821 -0.57936877 1.78086417 0 0 Z " fill="#C2956A" transform="translate(209,330)"/>
<path d="M0 0 C0.33 0 0.66 0 1 0 C2.56185991 11.15614222 -5.40607363 21.68039077 -11.71484375 30.3046875 C-12.13894531 30.86414063 -12.56304687 31.42359375 -13 32 C-13.66 30.68 -14.32 29.36 -15 28 C-14.29875 27.38125 -13.5975 26.7625 -12.875 26.125 C-9.06472439 22.32554904 -6.60943381 17.66238894 -4 13 C-3.401875 11.948125 -2.80375 10.89625 -2.1875 9.8125 C-0.80736033 6.54374816 -0.35184583 3.51845825 0 0 Z " fill="#336890" transform="translate(370,381)"/>
<path d="M0 0 C0.66 0.33 1.32 0.66 2 1 C1.01 1.33 0.02 1.66 -1 2 C-1 2.66 -1 3.32 -1 4 C-3.85195222 5.42597611 -6.32461175 5.1320252 -9.5 5.125 C-11.24796875 5.12886719 -11.24796875 5.12886719 -13.03125 5.1328125 C-16 5 -16 5 -18 4 C-18 3.34 -18 2.68 -18 2 C-16.67935547 2.03480469 -16.67935547 2.03480469 -15.33203125 2.0703125 C-13.58986328 2.09738281 -13.58986328 2.09738281 -11.8125 2.125 C-10.66394531 2.14820313 -9.51539063 2.17140625 -8.33203125 2.1953125 C-5.0670808 2.00393205 -2.9725209 1.25658965 0 0 Z " fill="#3671A4" transform="translate(343,445)"/>
<path d="M0 0 C1.86529124 2.79793686 2.61067174 4.69468482 3.5 7.875 C4.49825494 11.34102221 5.56335973 14.68467629 7 18 C6.34 18 5.68 18 5 18 C3.25372522 15.38058783 2.61277612 13.96175123 2 11 C1.34 11 0.68 11 0 11 C0 7.37 0 3.74 0 0 Z " fill="#366F99" transform="translate(192,393)"/>
<path d="M0 0 C0 0.99 0 1.98 0 3 C-3.61964725 6.6106655 -7.77559896 9.67347493 -13 10 C-12.34 9.67 -11.68 9.34 -11 9 C-11 8.34 -11 7.68 -11 7 C-9.9275 6.401875 -8.855 5.80375 -7.75 5.1875 C-5.01041007 3.62598931 -2.46743122 1.97394497 0 0 Z " fill="#2E82C0" transform="translate(353,440)"/>
<path d="M0 0 C0.66 0 1.32 0 2 0 C2.99 3.96 3.98 7.92 5 12 C4.34 11.67 3.68 11.34 3 11 C2.34 11.99 1.68 12.98 1 14 C0.67 9.38 0.34 4.76 0 0 Z " fill="#AF7D4E" transform="translate(217,296)"/>
<path d="M0 0 C1.98 0 3.96 0 6 0 C6 0.66 6 1.32 6 2 C12.93 2.495 12.93 2.495 20 3 C20 3.33 20 3.66 20 4 C6.3667426 4.55353075 6.3667426 4.55353075 0 1 C0 0.67 0 0.34 0 0 Z " fill="#2C80BD" transform="translate(319,447)"/>
<path d="M0 0 C0 0.99 0 1.98 0 3 C-5.28 2.67 -10.56 2.34 -16 2 C-16 1.67 -16 1.34 -16 1 C-13.89594609 0.83191581 -11.79175242 0.66558052 -9.6875 0.5 C-8.51574219 0.4071875 -7.34398437 0.314375 -6.13671875 0.21875 C-4.094806 0.07635011 -2.0468721 0 0 0 Z " fill="#456A87" transform="translate(310,432)"/>
<path d="M0 0 C1.56393356 3.97376829 0.36145292 6.81377903 -0.9375 10.75 C-1.31777344 11.92046875 -1.69804687 13.0909375 -2.08984375 14.296875 C-2.39019531 15.18890625 -2.69054687 16.0809375 -3 17 C-4.33844519 12.53851605 -3.97021019 8.51935516 -3 4 C-1.4375 1.4375 -1.4375 1.4375 0 0 Z " fill="#2E85C4" transform="translate(318,192)"/>
<path d="M0 0 C0.33 0 0.66 0 1 0 C1.63019694 9.01531729 1.63019694 9.01531729 -1 13.125 C-1.66 13.74375 -2.32 14.3625 -3 15 C-2.22225866 9.94468132 -1.14051606 4.98283716 0 0 Z " fill="#2C6B97" transform="translate(322,164)"/>
<path d="M0 0 C0.33 0 0.66 0 1 0 C1.05416188 1.60379341 1.09286638 3.20811406 1.125 4.8125 C1.14820313 5.70582031 1.17140625 6.59914063 1.1953125 7.51953125 C1 10 1 10 -1 13 C-2.42857143 4.57142857 -2.42857143 4.57142857 0 0 Z " fill="#2C7EBA" transform="translate(370,389)"/>
<path d="M0 0 C0.66 0.66 1.32 1.32 2 2 C2.99 2 3.98 2 5 2 C4.04270084 3.12588014 3.08412105 4.2506715 2.125 5.375 C1.59132812 6.00148438 1.05765625 6.62796875 0.5078125 7.2734375 C-0.61432007 8.55836651 -1.79371975 9.79371975 -3 11 C-2.32829194 7.1936543 -1.27253436 3.64793184 0 0 Z " fill="#9A9187" transform="translate(202,350)"/>
<path d="M0 0 C2.64 1.98 5.28 3.96 8 6 C6.68 6.33 5.36 6.66 4 7 C1.75 5.25 1.75 5.25 0 3 C0 2.01 0 1.02 0 0 Z " fill="#346487" transform="translate(206,420)"/>
</svg>
